<?xml version="1.0" encoding="UTF-8"?>
<svg id="svg5" xmlns="http://www.w3.org/2000/svg" viewBox="0 0 32 32">
  <defs>
    <style>
      .cls-1 {
        fill: #171d18;
        stroke-width: 0px;
      }

      .cls-2 {
        isolation: isolate;
      }
    </style>
  </defs>
  <g id="layer1">
    <g id="text18451" class="cls-2">
      <g class="cls-2">
        <path class="cls-1" d="m1.76,20.09v-9.8h2.27v7.95h4.91v1.85H1.76Z"/>
        <path class="cls-1" d="m14.8,20.26c-.77,0-1.49-.13-2.15-.38-.66-.25-1.23-.61-1.71-1.06-.48-.46-.85-.99-1.12-1.61-.27-.62-.4-1.29-.4-2.02s.13-1.4.4-2.02c.27-.62.64-1.15,1.13-1.61s1.05-.81,1.71-1.06,1.36-.38,2.13-.38,1.49.13,2.13.38c.65.25,1.21.61,1.69,1.06s.86.99,1.13,1.6.41,1.29.41,2.02-.14,1.4-.41,2.02c-.27.62-.65,1.16-1.13,1.61s-1.05.8-1.69,1.06c-.65.25-1.36.38-2.12.38Zm-.01-1.93c.44,0,.84-.07,1.21-.22.37-.15.69-.36.97-.64s.5-.61.65-.99.23-.81.23-1.27-.08-.89-.23-1.27-.37-.71-.64-.99c-.28-.28-.6-.49-.97-.64-.37-.15-.78-.22-1.22-.22s-.84.07-1.21.22-.69.36-.97.64c-.28.28-.5.61-.65.99-.15.38-.23.81-.23,1.27s.08.88.23,1.27c.15.39.37.72.64,1s.6.5.97.64c.37.15.78.22,1.22.22Z"/>
        <path class="cls-1" d="m21.86,20.09v-9.8h4.79c1.23,0,2.16.23,2.78.7.62.47.93,1.08.93,1.85,0,.51-.13.96-.38,1.34-.25.38-.6.67-1.04.88-.44.21-.94.31-1.51.31l.27-.57c.62,0,1.16.1,1.64.3s.85.5,1.11.89c.27.39.4.87.4,1.44,0,.84-.33,1.5-.99,1.97-.66.47-1.64.71-2.93.71h-5.07Zm2.25-1.71h2.65c.59,0,1.03-.1,1.34-.29.3-.19.46-.5.46-.92s-.15-.72-.46-.92c-.3-.2-.75-.3-1.34-.3h-2.81v-1.65h2.42c.55,0,.97-.1,1.27-.29s.44-.48.44-.88-.15-.67-.44-.86c-.29-.19-.72-.29-1.27-.29h-2.25v6.38Z"/>
      </g>
    </g>
  </g>
</svg>