<?xml version="1.0" encoding="UTF-8"?>
<svg id="Layer_1" data-name="Layer 1" xmlns="http://www.w3.org/2000/svg" viewBox="0 0 338.28 320.04">
  <defs>
    <style>
      .cls-1 {
        fill: #f9fbf3;
        stroke-width: 0px;
      }
    </style>
  </defs>
  <g>
    <path class="cls-1" d="m104.45,192.49c-4.82,0-9.26-.77-13.33-2.32-4.07-1.55-7.61-3.74-10.62-6.58-3.01-2.84-5.35-6.15-7.01-9.93-1.66-3.78-2.49-7.94-2.49-12.47s.83-8.69,2.49-12.47c1.66-3.78,4-7.1,7.01-9.93,3.01-2.84,6.55-5.03,10.62-6.58,4.07-1.55,8.51-2.32,13.33-2.32s9.33.77,13.37,2.32,7.55,3.74,10.54,6.58c2.98,2.84,5.32,6.15,7.01,9.93,1.69,3.78,2.54,7.94,2.54,12.47s-.85,8.7-2.54,12.51c-1.69,3.81-4.03,7.12-7.01,9.93-2.98,2.81-6.49,4.99-10.54,6.54-4.04,1.55-8.5,2.32-13.37,2.32Zm0-14.1c2.29,0,4.43-.4,6.41-1.2,1.98-.8,3.7-1.96,5.16-3.48,1.46-1.52,2.61-3.34,3.44-5.46.83-2.12,1.25-4.47,1.25-7.05s-.42-5-1.25-7.09-1.98-3.9-3.44-5.42c-1.46-1.52-3.18-2.68-5.16-3.48-1.98-.8-4.11-1.2-6.41-1.2s-4.43.4-6.41,1.2c-1.98.8-3.7,1.96-5.16,3.48-1.46,1.52-2.61,3.33-3.44,5.42-.83,2.09-1.25,4.46-1.25,7.09s.42,4.93,1.25,7.05c.83,2.12,1.98,3.94,3.44,5.46,1.46,1.52,3.18,2.68,5.16,3.48,1.98.8,4.11,1.2,6.41,1.2Z"/>
    <path class="cls-1" d="m146.85,191.29v-60.2h17.03v46.7h28.72v13.5h-45.75Z"/>
    <path class="cls-1" d="m199.31,191.29v-60.2h28.47c6.65,0,12.5,1.23,17.54,3.7,5.04,2.47,8.99,5.93,11.83,10.41s4.26,9.8,4.26,16-1.42,11.45-4.26,15.95-6.78,7.98-11.83,10.45c-5.04,2.47-10.89,3.7-17.54,3.7h-28.47Zm17.03-13.59h10.75c3.44,0,6.44-.64,8.99-1.93,2.55-1.29,4.54-3.18,5.98-5.68,1.43-2.49,2.15-5.46,2.15-8.9s-.72-6.48-2.15-8.94c-1.43-2.46-3.43-4.34-5.98-5.63-2.55-1.29-5.55-1.93-8.99-1.93h-10.75v33.02Z"/>
  </g>
  <g>
    <path class="cls-1" d="m0,318.36v-84h42.96c11.04,0,19.28,2.02,24.72,6.06,5.44,4.04,8.16,9.34,8.16,15.9,0,4.32-1.14,8.1-3.42,11.34-2.28,3.24-5.48,5.8-9.6,7.68-4.12,1.88-9.02,2.82-14.7,2.82l2.4-5.76c5.92,0,11.08.9,15.48,2.7,4.4,1.8,7.82,4.4,10.26,7.8,2.44,3.4,3.66,7.54,3.66,12.42,0,7.28-2.94,12.94-8.82,16.98-5.88,4.04-14.46,6.06-25.74,6.06H0Zm23.52-17.16h19.92c4.08,0,7.18-.7,9.3-2.1,2.12-1.4,3.18-3.54,3.18-6.42s-1.06-5.02-3.18-6.42c-2.12-1.4-5.22-2.1-9.3-2.1h-21.6v-16.44h18c4,0,7-.68,9-2.04,2-1.36,3-3.4,3-6.12s-1-4.74-3-6.06c-2-1.32-5-1.98-9-1.98h-16.32v49.68Z"/>
    <path class="cls-1" d="m134.64,320.04c-6.72,0-12.92-1.08-18.6-3.24-5.68-2.16-10.62-5.22-14.82-9.18-4.2-3.96-7.46-8.58-9.78-13.86-2.32-5.28-3.48-11.08-3.48-17.4s1.16-12.12,3.48-17.4c2.32-5.28,5.58-9.9,9.78-13.86,4.2-3.96,9.14-7.02,14.82-9.18,5.68-2.16,11.88-3.24,18.6-3.24s13.02,1.08,18.66,3.24,10.54,5.22,14.7,9.18c4.16,3.96,7.42,8.58,9.78,13.86,2.36,5.28,3.54,11.08,3.54,17.4s-1.18,12.14-3.54,17.46c-2.36,5.32-5.62,9.94-9.78,13.86-4.16,3.92-9.06,6.96-14.7,9.12s-11.86,3.24-18.66,3.24Zm0-19.68c3.2,0,6.18-.56,8.94-1.68,2.76-1.12,5.16-2.74,7.2-4.86,2.04-2.12,3.64-4.66,4.8-7.62,1.16-2.96,1.74-6.24,1.74-9.84s-.58-6.98-1.74-9.9c-1.16-2.92-2.76-5.44-4.8-7.56-2.04-2.12-4.44-3.74-7.2-4.86-2.76-1.12-5.74-1.68-8.94-1.68s-6.18.56-8.94,1.68c-2.76,1.12-5.16,2.74-7.2,4.86-2.04,2.12-3.64,4.64-4.8,7.56-1.16,2.92-1.74,6.22-1.74,9.9s.58,6.88,1.74,9.84c1.16,2.96,2.76,5.5,4.8,7.62,2.04,2.12,4.44,3.74,7.2,4.86,2.76,1.12,5.74,1.68,8.94,1.68Z"/>
    <path class="cls-1" d="m211.44,318.36v-35.52l5.52,14.28-37.56-62.76h25.08l27.12,45.48h-14.52l27.24-45.48h23.04l-37.44,62.76,5.28-14.28v35.52h-23.76Z"/>
    <path class="cls-1" d="m301.08,320.04c-6.88,0-13.5-.86-19.86-2.58-6.36-1.72-11.54-3.94-15.54-6.66l7.8-17.52c3.76,2.4,8.1,4.38,13.02,5.94,4.92,1.56,9.82,2.34,14.7,2.34,3.28,0,5.92-.3,7.92-.9,2-.6,3.46-1.4,4.38-2.4.92-1,1.38-2.18,1.38-3.54,0-1.92-.88-3.44-2.64-4.56-1.76-1.12-4.04-2.04-6.84-2.76-2.8-.72-5.9-1.44-9.3-2.16-3.4-.72-6.8-1.64-10.2-2.76-3.4-1.12-6.5-2.58-9.3-4.38-2.8-1.8-5.08-4.16-6.84-7.08-1.76-2.92-2.64-6.62-2.64-11.1,0-5.04,1.38-9.6,4.14-13.68,2.76-4.08,6.9-7.36,12.42-9.84,5.52-2.48,12.4-3.72,20.64-3.72,5.52,0,10.94.62,16.26,1.86,5.32,1.24,10.06,3.06,14.22,5.46l-7.32,17.64c-4-2.16-7.96-3.78-11.88-4.86-3.92-1.08-7.72-1.62-11.4-1.62-3.28,0-5.92.34-7.92,1.02-2,.68-3.44,1.58-4.32,2.7-.88,1.12-1.32,2.4-1.32,3.84,0,1.84.86,3.3,2.58,4.38,1.72,1.08,4,1.96,6.84,2.64,2.84.68,5.96,1.38,9.36,2.1,3.4.72,6.8,1.62,10.2,2.7,3.4,1.08,6.5,2.52,9.3,4.32,2.8,1.8,5.06,4.16,6.78,7.08,1.72,2.92,2.58,6.58,2.58,10.98,0,4.88-1.38,9.38-4.14,13.5-2.76,4.12-6.88,7.42-12.36,9.9-5.48,2.48-12.38,3.72-20.7,3.72Z"/>
  </g>
  <g>
    <path class="cls-1" d="m19.74,84V0h23.76v65.16h40.08v18.84H19.74Z"/>
    <path class="cls-1" d="m92.94,84V0h23.76v84h-23.76Z"/>
    <path class="cls-1" d="m133.62,84V0h19.56l46.32,55.92h-9.24V0h23.28v84h-19.56l-46.32-55.92h9.24v55.92h-23.28Z"/>
    <path class="cls-1" d="m230.34,84V0h39.72c9.28,0,17.44,1.72,24.48,5.16,7.04,3.44,12.54,8.28,16.5,14.52,3.96,6.24,5.94,13.68,5.94,22.32s-1.98,15.98-5.94,22.26c-3.96,6.28-9.46,11.14-16.5,14.58-7.04,3.44-15.2,5.16-24.48,5.16h-39.72Zm23.76-18.96h15c4.8,0,8.98-.9,12.54-2.7,3.56-1.8,6.34-4.44,8.34-7.92,2-3.48,3-7.62,3-12.42s-1-9.04-3-12.48c-2-3.44-4.78-6.06-8.34-7.86-3.56-1.8-7.74-2.7-12.54-2.7h-15v46.08Z"/>
  </g>
</svg>